<svg width="76" height="76" viewBox="0 0 76 76" fill="none" xmlns="http://www.w3.org/2000/svg">
<g clip-path="url(#clip0_1867_28770)">
<path opacity="0.64" fill-rule="evenodd" clip-rule="evenodd" d="M38.1434 0H37.7973L37.7855 7.69006e-05C34.3001 0.0453819 31.3944 0.934544 29.7184 1.79493L25.8891 3.64068C25.7308 3.71698 25.5958 3.83729 25.4991 3.98835C24.8238 5.04305 24.0375 7.21498 23.5588 10.4673C23.2404 12.6305 23.0535 15.3028 23.1334 18.4979L23.1341 18.5239C23.1658 19.7718 23.2383 21.0994 23.3595 22.5074C22.8953 22.4719 22.3434 22.5162 21.8417 22.79C21.2681 23.1031 20.8699 23.6574 20.7296 24.4046C20.5985 25.1025 20.6958 25.934 20.9815 26.8947C21.491 28.6085 21.6329 29.7238 21.6299 30.3953C21.6284 30.7314 21.5902 30.9286 21.5621 31.0216C21.3979 31.1951 21.2996 31.4278 21.2907 31.6757C21.2418 33.0341 22.3277 35.0246 25.4095 36.0115C25.8037 37.744 26.1845 39.0518 26.5274 40.008V47.8372L26.4724 47.8341C25.8082 47.7958 24.875 47.7457 23.7983 47.6983C23.3326 47.6779 22.8399 47.6579 22.3303 47.6396C20.5645 47.5763 18.5886 47.5329 16.8305 47.5599C15.1039 47.5864 13.4915 47.6807 12.5088 47.9236C10.7184 48.3662 8.90577 49.5834 7.34802 51.0932C5.77957 52.6133 4.39414 54.5025 3.48098 56.4023C2.56347 58.3111 1.51855 61.9963 0.818131 65.9073C0.209159 69.3076 -0.164437 73.0143 0.0714643 76H1.97189C1.73053 73.2696 2.06648 69.6916 2.6796 66.268C3.36867 62.4204 4.37475 58.9471 5.17455 57.2832C5.97871 55.6103 7.22214 53.9074 8.63876 52.5344C10.0661 51.151 11.5947 50.1741 12.9465 49.84C13.2649 49.7613 13.7015 49.6984 14.2315 49.65L14.4007 75.4332L14.2315 76L35.8164 76L37.9071 73.0432C38.1238 72.7368 38.5908 72.8962 38.5908 73.2767V75.5099C38.5908 75.7274 38.7604 75.9038 38.9695 75.9038H40.5228C40.6208 75.9038 40.7064 75.9409 40.7713 76L61.6926 76L61.5303 75.4332L61.6926 49.6497C62.2239 49.6982 62.6616 49.7611 62.9805 49.84C64.3322 50.1741 65.8607 51.151 67.288 52.5343C68.7045 53.9073 69.9478 55.6102 70.7519 57.2832C71.5517 58.9471 72.5577 62.4203 73.2467 66.268C73.7369 69.0052 74.0041 73.0558 73.9669 76H75.9468C76.1575 73.0128 75.7144 69.2926 75.1082 65.9073C74.4078 61.9963 73.363 58.3111 72.4455 56.4023C71.5324 54.5026 70.1471 52.6134 68.5787 51.0932C67.0211 49.5835 65.2086 48.3662 63.4183 47.9236C62.4356 47.6807 60.8234 47.5864 59.0968 47.5599C57.3389 47.5329 55.3631 47.5763 53.5974 47.6396C53.0879 47.6579 52.5953 47.6779 52.1296 47.6983C51.0529 47.7457 50.1198 47.7958 49.4556 47.8341L49.4008 47.8372V40.0079C49.7436 39.0518 50.1244 37.744 50.5186 36.0115C53.6001 35.0246 54.6859 33.0341 54.6371 31.6757C54.6282 31.4279 54.5296 31.194 54.3653 31.0205C54.3372 30.9274 54.2994 30.7314 54.2979 30.3953C54.2948 29.7238 54.4367 28.6085 54.9463 26.8947C55.2319 25.934 55.3292 25.1025 55.1981 24.4046C55.0578 23.6575 54.6597 23.1031 54.086 22.79C53.5844 22.5162 53.0325 22.4719 52.5684 22.5074C52.6896 21.0994 52.762 19.7718 52.7938 18.5239L52.7945 18.4979C52.8744 15.3028 52.6875 12.6305 52.3691 10.4673C51.8904 7.21499 51.1042 5.04308 50.4289 3.98837C50.3322 3.83731 50.1973 3.71699 50.039 3.64069L46.2098 1.79493C44.534 0.934536 41.6285 0.045305 38.1434 0ZM25.3732 23.6672C25.1967 21.9864 25.0908 20.4206 25.0416 18.9682L29.643 15.4143C29.8836 15.2285 30.0254 14.9353 30.0254 14.6236V12.6922C31.6275 11.9516 34.8204 10.8553 37.9311 10.9748C37.9544 10.9757 37.9777 10.9757 38.001 10.9748C39.7665 10.9069 41.5585 11.2311 43.0709 11.6595C42.8599 11.697 42.6569 11.7354 42.4727 11.7761C42.2927 11.8159 42.2966 12.0451 42.4745 12.0944L45.2847 12.8736C45.4098 12.9084 45.5309 12.8051 45.5239 12.6705L45.5164 12.5201C45.6537 12.579 45.7827 12.6366 45.9028 12.6921V14.6236C45.9028 14.9352 46.0446 15.2285 46.2851 15.4143L50.8863 18.9682C50.8371 20.4206 50.7312 21.9864 50.5547 23.6672C50.5212 23.9869 50.4851 24.3108 50.4463 24.6388C49.9158 29.1305 49.3412 32.5107 48.7994 35.0025C48.361 37.0192 47.9466 38.4415 47.5997 39.3942L47.5781 39.4531C47.575 39.4609 47.572 39.4689 47.5691 39.4768C47.5669 39.4826 47.5649 39.4884 47.5629 39.4942C47.4044 39.92 47.2649 40.235 47.1497 40.4573C47.0372 40.6746 46.9691 40.7614 46.9563 40.7777C46.9541 40.7805 46.9553 40.7796 46.9553 40.7796C46.9256 40.8082 46.8976 40.8389 46.8717 40.8712C46.1298 41.7974 44.7706 43.2125 43.152 44.3873C41.5126 45.5771 39.736 46.4261 38.1315 46.4261H37.7973C36.1927 46.4261 34.416 45.5771 32.7765 44.3873C31.1577 43.2125 29.7985 41.7974 29.0565 40.8712C29.0305 40.8388 29.0034 40.8088 28.9737 40.7801L28.9716 40.7775C28.9588 40.7611 28.891 40.6745 28.7784 40.4573C28.6633 40.235 28.5237 39.9199 28.3652 39.4942C28.3605 39.4803 28.3554 39.4666 28.35 39.4531L28.3284 39.3942C27.9815 38.4414 27.5671 37.0192 27.1286 35.0025C26.5868 32.5107 26.0122 29.1305 25.4816 24.6388C25.4428 24.3108 25.4067 23.9869 25.3732 23.6672ZM44.2354 46.0027C45.5263 45.0658 46.6622 43.9953 47.5073 43.0797V48.8818C47.5073 49.154 47.6155 49.414 47.8064 49.6002C47.9973 49.7864 48.2546 49.8821 48.5157 49.8646L48.5847 49.8601L48.7901 49.847C48.9696 49.8357 49.2315 49.8197 49.5603 49.8008C50.2181 49.7629 51.1427 49.7132 52.2096 49.6663L52.5787 49.6504L52.6953 49.6456C52.6912 49.9808 52.6792 50.3134 52.6593 50.6433C51.8262 59.3876 45.5034 66.0295 38.02 66.0295C30.2546 66.0295 23.739 58.8789 23.3091 49.6488L23.7183 49.6663C24.7852 49.7132 25.7099 49.7629 26.3677 49.8008C26.6965 49.8197 26.9585 49.8357 27.138 49.847L27.3434 49.8601L27.4133 49.8646C27.6744 49.8821 27.9309 49.7864 28.1217 49.6002C28.3126 49.414 28.4209 49.154 28.4209 48.8818V43.0796C29.266 43.9952 30.402 45.0658 31.6931 46.0027C33.4463 47.2751 35.6146 48.3958 37.7973 48.3958H38.1315C40.3141 48.3958 42.4823 47.2751 44.2354 46.0027ZM23.2571 24.4749C23.3564 24.4844 23.4587 24.5013 23.5611 24.5241C23.5745 24.6419 23.5882 24.7603 23.6022 24.8791C24.0268 28.473 24.4813 31.3817 24.9294 33.7127C23.7183 33.1 23.3335 32.36 23.223 31.9802C23.2866 31.8545 23.3336 31.7276 23.3688 31.6112C23.4695 31.278 23.5212 30.8748 23.5234 30.4046C23.5276 29.4637 23.3333 28.1386 22.7904 26.3127C22.5498 25.5035 22.5414 25.0299 22.5879 24.7823C22.6246 24.587 22.6876 24.5527 22.7215 24.5342C22.8016 24.4905 22.9726 24.4479 23.2571 24.4749ZM52.7047 31.9802C52.5943 32.3599 52.2096 33.1 50.9986 33.7126C51.4467 31.3817 51.9012 28.473 52.3257 24.8791C52.3397 24.7603 52.3534 24.6419 52.3668 24.5241C52.4692 24.5013 52.5715 24.4844 52.6707 24.4749C52.9552 24.4479 53.1276 24.4913 53.2078 24.535C53.2416 24.5535 53.3031 24.5869 53.3398 24.7823C53.3863 25.0299 53.3779 25.5035 53.1373 26.3127C52.5945 28.1386 52.4002 29.4637 52.4044 30.4046C52.4066 30.8748 52.4583 31.278 52.559 31.6112C52.5942 31.7276 52.6411 31.8545 52.7047 31.9802Z" fill="#6E6E6E"/>
</g>
<defs>
<clipPath id="clip0_1867_28770">
<rect width="76" height="76" rx="16" fill="white"/>
</clipPath>
</defs>
</svg>
