<svg width="76" height="76" viewBox="0 0 76 76" fill="none" xmlns="http://www.w3.org/2000/svg">
<path opacity="0.64" fill-rule="evenodd" clip-rule="evenodd" d="M22.9426 10.8383C23.1973 4.32032 25.7015 6.58521 26.9217 8.5324C27.6114 6.73894 29.914 3.09052 33.6067 2.84456C37.2993 2.5986 39.0713 1.20482 39.4958 0.538673C40.2385 -0.332438 42.4563 -0.783365 45.3849 4.38182C46.0216 4.58678 47.4859 4.87373 48.2499 4.38182C48.9844 3.90887 49.6248 5.34573 50.2434 6.73382C50.4291 7.15036 50.6128 7.56269 50.7965 7.91751C50.9914 8.29406 51.3487 9.72208 51.6415 11.813C51.7226 11.9344 51.7971 12.1887 51.8634 12.6192C52.1818 14.6875 52.3687 17.2425 52.2888 20.2974L52.2881 20.3223C52.2563 21.5155 52.1839 22.7847 52.0626 24.1309C52.5268 24.097 53.0787 24.1394 53.5803 24.4012C54.154 24.7005 54.5521 25.2306 54.6924 25.9449C54.8235 26.6122 54.7262 27.4072 54.4406 28.3257C53.931 29.9643 53.7891 31.0306 53.7922 31.6727C53.7937 31.994 53.8315 32.1815 53.8596 32.2704C54.0239 32.4364 54.1225 32.66 54.1314 32.897C54.1802 34.1957 53.0944 36.0988 50.0128 37.0424C49.6187 38.6989 49.2379 39.9493 48.895 40.8635V48.3492L49.1456 48.3356C49.1448 48.3317 49.144 48.3278 49.1432 48.3239H50.9C51.4475 48.4703 52.0389 48.6043 52.6774 48.7242C61.8161 50.4405 67.9085 54.5471 69.8124 56.386C70.8172 57.1521 73.4615 62.1476 76 76H72.7701C72.77 74.1938 72.3254 71.1682 71.4815 67.7944C70.6337 64.4052 69.3634 60.5853 67.6709 57.1909C67.5354 56.9191 67.3132 56.7065 67.0508 56.5764C58.2166 52.1984 53.483 50.6445 50.2105 49.9262L50.1704 49.9174L50.1297 49.9115C49.9657 49.888 49.7012 49.8408 49.4627 49.7804C49.3894 49.7619 49.326 49.744 49.2735 49.7274V49.7425C49.2625 49.7431 49.2514 49.7442 49.2401 49.7459C49.243 49.7483 49.246 49.7508 49.2489 49.7534L47.7953 51.3532C48.0054 51.5346 48.2532 51.6371 48.3952 51.6907C48.5653 51.755 48.7471 51.8074 48.9121 51.8491C49.2226 51.9277 49.5445 51.9862 49.767 52.0196C52.7668 52.682 57.2622 54.1374 65.8163 58.3623C67.3652 61.526 68.5497 65.0949 69.3516 68.3007C70.1773 71.6019 70.5777 74.4392 70.5777 76H5.42864C5.44128 72.7128 6.27222 64.7086 9.1805 58.3669C17.226 54.1734 22.1902 52.7602 25.0538 52.0926C25.267 52.0587 25.5731 51.9996 25.8691 51.9204C26.0274 51.878 26.2034 51.8244 26.3691 51.7582C26.5077 51.7028 26.7515 51.596 26.9571 51.408L25.4577 49.8488C25.5157 49.7958 25.5604 49.7716 25.5643 49.7694L25.5666 49.7682L25.5587 49.7718C25.554 49.7739 25.5469 49.7769 25.5373 49.7808C25.4832 49.8024 25.3993 49.8298 25.2885 49.8595C25.068 49.9185 24.8222 49.965 24.6706 49.988L24.6277 49.9946L24.5855 50.0044C21.5188 50.7168 16.2978 52.2099 7.90375 56.6092C7.64401 56.7454 7.42753 56.963 7.29876 57.2369C4.12238 63.9938 3.24879 72.4978 3.23632 76H0.00339967C-0.123526 65.8252 3.33519 58.6845 5.08042 56.386C7.03718 54.0364 16.0277 49.7969 22.2153 48.7242C22.8668 48.6113 23.4692 48.4768 24.0259 48.3239H25.6902C25.6897 48.3263 25.6892 48.3287 25.6887 48.3311L25.9667 48.3462L26.0217 48.3492V40.8635C25.6787 39.9493 25.298 38.6989 24.9038 37.0424C21.822 36.0988 20.7361 34.1957 20.785 32.897C20.7939 32.6599 20.8921 32.4374 21.0564 32.2715C21.0845 32.1826 21.1226 31.994 21.1242 31.6727C21.1272 31.0306 20.9853 29.9643 20.4758 28.3257C20.1901 27.4072 20.0928 26.6122 20.2239 25.9449C20.3642 25.2305 20.7623 24.7005 21.336 24.4011C21.8377 24.1394 22.3896 24.097 22.8538 24.1309C22.7326 22.7847 22.6601 21.5154 22.6284 20.3223L22.6277 20.2974C22.5637 17.8521 22.6707 15.7272 22.8793 13.9157C22.8825 12.8065 22.9062 11.7705 22.9426 10.8383ZM25.9496 49.9216C26.2634 50.4902 26.8072 51.0214 27.5371 51.4966C27.4759 51.5217 27.4142 51.5467 27.3519 51.5714C27.7703 51.7561 28.1913 51.9307 28.615 52.0946C30.1676 52.8334 32.2315 53.3755 34.5717 53.6213C36.3943 53.8497 38.2613 53.8638 40.1734 53.6304C42.5863 53.3854 44.7103 52.826 46.29 52.0602C46.6793 51.9079 47.0703 51.7451 47.4631 51.5714C47.4087 51.5455 47.3547 51.5195 47.3012 51.4934C48.0414 51.0106 48.5897 50.4703 48.9001 49.8917C48.8115 49.9463 48.7231 50.009 48.6406 50.0675C48.4907 50.1738 48.3605 50.2662 48.2844 50.2708L48.079 50.2833L48.01 50.2876C47.7489 50.3043 47.4916 50.2129 47.3007 50.0348C47.1098 49.8568 47.0015 49.6082 47.0015 49.348V43.8005C46.1565 44.6759 45.0206 45.6994 43.7297 46.5952C41.9766 47.8117 39.8084 48.8833 37.6258 48.8833H37.2916C35.1089 48.8833 32.9406 47.8117 31.1874 46.5952C29.8963 45.6994 28.7602 44.6758 27.9152 43.8003V49.348C27.9152 49.6082 27.8069 49.8568 27.616 50.0348C27.4251 50.2129 27.1687 50.3044 26.9076 50.2877L26.8377 50.2833L26.6323 50.2708C26.5563 50.2662 26.4136 50.1833 26.2494 50.088C26.1538 50.0324 26.0509 49.9726 25.9496 49.9216ZM26.9876 18.9366L24.5359 20.7471C24.5851 22.1357 24.691 23.6328 24.8675 25.2399C24.901 25.5456 24.9371 25.8552 24.9759 26.1689C25.5065 30.4634 26.081 33.6953 26.6229 36.0777C27.0614 38.0059 27.4757 39.3658 27.8227 40.2767L27.8443 40.333C27.8497 40.3459 27.8547 40.3591 27.8595 40.3723C28.018 40.7794 28.1576 41.0806 28.2727 41.2931C28.3852 41.5008 28.4531 41.5837 28.4659 41.5992L28.468 41.6018C28.4977 41.6292 28.5248 41.6579 28.5507 41.6889C29.2927 42.5744 30.652 43.9274 32.2707 45.0506C33.9103 46.1882 35.687 47 37.2916 47H37.6258C39.2303 47 41.0069 46.1883 42.6463 45.0507C44.2649 43.9274 45.624 42.5745 46.366 41.6889C46.3919 41.658 46.4199 41.6287 46.4496 41.6013C46.4496 41.6011 46.4497 41.6006 46.4506 41.5995C46.4634 41.5839 46.5315 41.5009 46.644 41.2931C46.7591 41.0806 46.8987 40.7794 47.0571 40.3724L47.0633 40.3557L47.0724 40.333L47.094 40.2767C47.4409 39.3658 47.8553 38.0059 48.2937 36.0777C48.8355 33.6953 49.41 30.4634 49.9406 26.1689C49.9794 25.8552 50.0155 25.5456 50.049 25.2399C50.2254 23.6328 50.3314 22.1357 50.3805 20.7471L46.4654 17.8557C45.5589 17.9366 44.5851 18.1866 44.1072 18.406C43.0195 17.0468 40.7613 14.7211 38.6185 13.1111C38.2449 13.0938 37.8695 13.0907 37.4953 13.1045C37.472 13.1053 37.4487 13.1053 37.4254 13.1045C36.8034 13.0816 36.1781 13.1052 35.563 13.1633C39.8181 15.8798 41.692 18.367 42.1018 19.297C41.7497 19.4176 41.3703 19.5418 40.9877 19.663C39.8842 20.1576 39.7888 20.0372 39.722 19.9528L39.7183 19.9481L39.7144 19.9432C38.7063 18.7134 36.3719 16.2231 35.0986 16.1001C33.8252 15.9771 33.8252 16.8687 33.9844 17.3299L38.1227 20.4044L37.8044 20.5581C37.486 20.5581 34.6211 20.2507 32.0744 18.5597C30.2387 17.3408 28.0929 18.1936 26.9876 18.9366ZM23.0554 26.0592C22.953 26.0374 22.8506 26.0212 22.7514 26.0122C22.4669 25.9863 22.2959 26.027 22.2157 26.0688C22.1819 26.0865 22.1189 26.1193 22.0822 26.3061C22.0357 26.5427 22.0441 26.9955 22.2847 27.7692C22.8276 29.515 23.0219 30.782 23.0176 31.6816C23.0155 32.1312 22.9638 32.5167 22.8631 32.8353C22.8279 32.9465 22.7809 33.0679 22.7173 33.1881C22.8277 33.5511 23.2126 34.2587 24.4237 34.8445C23.9756 32.6158 23.5211 29.8348 23.0965 26.3986C23.0825 26.285 23.0688 26.1718 23.0554 26.0592ZM50.4929 34.8444C51.7039 34.2587 52.0886 33.5511 52.199 33.1881C52.1354 33.0679 52.0884 32.9465 52.0533 32.8353C51.9526 32.5167 51.9008 32.1312 51.8987 31.6816C51.8944 30.782 52.0887 29.515 52.6316 27.7692C52.8722 26.9955 52.8806 26.5427 52.8341 26.3061C52.7974 26.1192 52.7359 26.0872 52.7021 26.0696C52.6219 26.0278 52.4495 25.9863 52.165 26.0122C52.0658 26.0212 51.9635 26.0374 51.8611 26.0592C51.8477 26.1718 51.834 26.285 51.82 26.3986C51.3955 29.8347 50.941 32.6158 50.4929 34.8444Z" fill="#A8A8A8"/>
</svg>
